<svg xmlns="http://www.w3.org/2000/svg" viewBox="0 0 1600 1000" width="1600" height="1000" preserveAspectRatio="xMidYMid slice">
  <defs>
    <linearGradient id="er" x1="0" y1="0" x2="1" y2="1">
      <stop offset="0" stop-color="#0B1F3A"/>
      <stop offset=".55" stop-color="#13345F"/>
      <stop offset="1" stop-color="#050F22"/>
    </linearGradient>
    <radialGradient id="er-glow" cx=".25" cy=".7" r=".7">
      <stop offset="0" stop-color="#F5A524" stop-opacity=".35"/>
      <stop offset="1" stop-color="#F5A524" stop-opacity="0"/>
    </radialGradient>
    <pattern id="grid" width="60" height="60" patternUnits="userSpaceOnUse">
      <path d="M60 0H0v60" fill="none" stroke="rgba(255,255,255,.05)" stroke-width="1"/>
    </pattern>
  </defs>
  <rect width="1600" height="1000" fill="url(#er)"/>
  <rect width="1600" height="1000" fill="url(#grid)"/>
  <rect width="1600" height="1000" fill="url(#er-glow)"/>
  <g fill="none" stroke="rgba(255,255,255,.18)" stroke-width="3">
    <rect x="140" y="220" width="360" height="520" rx="10"/>
    <rect x="180" y="270" width="280" height="80" rx="4"/>
    <rect x="180" y="370" width="280" height="80" rx="4"/>
    <rect x="180" y="470" width="280" height="80" rx="4"/>
    <circle cx="1200" cy="500" r="240"/>
    <circle cx="1200" cy="500" r="180"/>
    <line x1="0" y1="900" x2="1600" y2="900"/>
  </g>
  <g fill="#F5A524">
    <circle cx="220" cy="310" r="6"/>
    <circle cx="240" cy="310" r="4" fill="#22c55e"/>
    <circle cx="260" cy="310" r="4" fill="#ef4444"/>
  </g>
  <text x="80" y="940" font-family="ui-monospace, monospace" font-size="22" fill="rgba(255,255,255,.55)" letter-spacing="6">
    ENGINE ROOM · PLACEHOLDER
  </text>
</svg>
